{
  "asset": {
    "generator": "3D Builder",
    "version": "2.0"
  },
  "scene": 0,
  "scenes": [
    {
      "nodes": [
        0
      ]
    }
  ],
  "nodes": [
    {
      "mesh": 0,
      "matrix": [
        39.36983108520508,
        0.07785828411579132,
        0.1350279599428177,
        0,
        0.1344773769378662,
        0.2868756651878357,
        -39.368812561035156,
        0,
        -0.07883980870246887,
        39.36902618408203,
        0.28661850094795227,
        0,
        -0.2236870527267456,
        0.9647509455680847,
        -0.12487351894378662,
        1
      ]
    }
  ],
  "meshes": [
    {
      "primitives": [
        {
          "attributes": {
            "POSITION": 0
          },
          "mode": 4,
          "indices": 8,
          "material": 0
        },
        {
          "attributes": {
            "POSITION": 1
          },
          "mode": 4,
          "indices": 9,
          "material": 1
        },
        {
          "attributes": {
            "POSITION": 2,
            "TEXCOORD_0": 5
          },
          "mode": 4,
          "indices": 10,
          "material": 2
        },
        {
          "attributes": {
            "POSITION": 3,
            "TEXCOORD_0": 6
          },
          "mode": 4,
          "indices": 11,
          "material": 3
        },
        {
          "attributes": {
            "POSITION": 4,
            "TEXCOORD_0": 7
          },
          "mode": 4,
          "indices": 12,
          "material": 4
        }
      ]
    }
  ],
  "materials": [
    {
      "name": "Material.006",
      "pbrMetallicRoughness": {
        "baseColorFactor": [
          0.18446886539459229,
          0.18446886539459229,
          0.18446886539459229,
          1
        ],
        "metallicFactor": 0.9545454382896423,
        "roughnessFactor": 0.5
      },
      "alphaMode": "OPAQUE"
    },
    {
      "name": "Material.005",
      "pbrMetallicRoughness": {
        "baseColorFactor": [
          0.17653566598892212,
          0.17653566598892212,
          0.17653566598892212,
          1
        ],
        "metallicFactor": 0,
        "roughnessFactor": 0.968181848526001
      },
      "alphaMode": "OPAQUE"
    },
    {
      "pbrMetallicRoughness": {
        "baseColorFactor": [
          1,
          1,
          1,
          1
        ],
        "metallicFactor": 0,
        "roughnessFactor": 0.8545454740524292,
        "baseColorTexture": {
          "index": 0,
          "texCoord": 0
        }
      },
      "alphaMode": "OPAQUE"
    },
    {
      "pbrMetallicRoughness": {
        "baseColorFactor": [
          1,
          1,
          1,
          1
        ],
        "metallicFactor": 0,
        "roughnessFactor": 1,
        "baseColorTexture": {
          "index": 1,
          "texCoord": 0
        }
      },
      "alphaMode": "OPAQUE"
    },
    {
      "pbrMetallicRoughness": {
        "baseColorFactor": [
          1,
          1,
          1,
          1
        ],
        "metallicFactor": 0,
        "roughnessFactor": 1,
        "baseColorTexture": {
          "index": 2,
          "texCoord": 0
        }
      },
      "alphaMode": "OPAQUE"
    }
  ],
  "textures": [
    {
      "source": 0,
      "sampler": 0
    },
    {
      "source": 1,
      "sampler": 0
    },
    {
      "source": 2,
      "sampler": 0
    }
  ],
  "images": [
    {
      "uri": "artStand3_img0.jpg"
    },
    {
      "uri": "artStand3_img1.jpg"
    },
    {
      "uri": "artStand3_img2.jpg"
    }
  ],
  "samplers": [
    {
      "magFilter": 9729,
      "wrapS": 10497,
      "wrapT": 10497
    }
  ],
  "accessors": [
    {
      "bufferView": 0,
      "byteOffset": 0,
      "count": 45,
      "componentType": 5126,
      "type": "VEC3",
      "min": [
        -0.0009228765848092735,
        -0.008293001912534237,
        0.0018642136128619313
      ],
      "max": [
        0.011849582195281982,
        -0.007873933762311935,
        0.0023561620619148016
      ]
    },
    {
      "bufferView": 0,
      "byteOffset": 540,
      "count": 258,
      "componentType": 5126,
      "type": "VEC3",
      "min": [
        0.0012817846145480871,
        -0.011627323925495148,
        -0.0010146001586690545
      ],
      "max": [
        0.009736022911965847,
        0.002183695090934634,
        0.0025383669417351484
      ]
    },
    {
      "bufferView": 0,
      "byteOffset": 3636,
      "count": 526,
      "componentType": 5126,
      "type": "VEC3",
      "min": [
        -0.004566944669932127,
        -0.01598198525607586,
        -0.024427738040685654
      ],
      "max": [
        0.01589449867606163,
        0.001983271213248372,
        0.02095912955701351
      ]
    },
    {
      "bufferView": 0,
      "byteOffset": 9948,
      "count": 6098,
      "componentType": 5126,
      "type": "VEC3",
      "min": [
        -0.004566944669932127,
        -0.01598198525607586,
        -0.02457350119948387
      ],
      "max": [
        0.01589449867606163,
        0.009362508542835712,
        0.02095912955701351
      ]
    },
    {
      "bufferView": 0,
      "byteOffset": 83124,
      "count": 9,
      "componentType": 5126,
      "type": "VEC3",
      "min": [
        -0.0019978766795247793,
        -0.010169696062803268,
        0.0010260774288326502
      ],
      "max": [
        0.012633057311177254,
        -0.004995118826627731,
        0.01997523196041584
      ]
    },
    {
      "bufferView": 1,
      "byteOffset": 0,
      "count": 526,
      "componentType": 5126,
      "type": "VEC2"
    },
    {
      "bufferView": 1,
      "byteOffset": 4208,
      "count": 6098,
      "componentType": 5126,
      "type": "VEC2"
    },
    {
      "bufferView": 1,
      "byteOffset": 52992,
      "count": 9,
      "componentType": 5126,
      "type": "VEC2"
    },
    {
      "bufferView": 2,
      "byteOffset": 0,
      "count": 72,
      "componentType": 5125,
      "type": "SCALAR"
    },
    {
      "bufferView": 2,
      "byteOffset": 288,
      "count": 429,
      "componentType": 5125,
      "type": "SCALAR"
    },
    {
      "bufferView": 2,
      "byteOffset": 2004,
      "count": 765,
      "componentType": 5125,
      "type": "SCALAR"
    },
    {
      "bufferView": 2,
      "byteOffset": 5064,
      "count": 35874,
      "componentType": 5125,
      "type": "SCALAR"
    },
    {
      "bufferView": 2,
      "byteOffset": 148560,
      "count": 24,
      "componentType": 5125,
      "type": "SCALAR"
    }
  ],
  "bufferViews": [
    {
      "buffer": 0,
      "byteOffset": 0,
      "byteLength": 83232,
      "byteStride": 12,
      "target": 34962
    },
    {
      "buffer": 0,
      "byteOffset": 83232,
      "byteLength": 53064,
      "byteStride": 8,
      "target": 34962
    },
    {
      "buffer": 0,
      "byteOffset": 136296,
      "byteLength": 148656,
      "target": 34963
    }
  ],
  "buffers": [
    {
      "uri": "artStand3_data.bin",
      "byteLength": 284952
    }
  ]
}