<svg version="1.1" xmlns="http://www.w3.org/2000/svg" viewBox="-1484.3078086266455 -1648.6375 3497.0078086266453 2822.775"><desc>Created with Snap</desc><defs></defs><g><g transform="matrix(24.4671,0,0,24.4671,-1927.9955,-1460.5922)"><g><path d="M46.547,58.738c-4.128-4.331-11.578-7.743-11.771-17.221c-0.446,0.713-1.499,2.698-1.823,3.53   c-1.18,3.038-1.942,4.97-2.189,8.174c-0.286,3.715,0.227,6.195,2.004,9.602c1.649,3.162,4.247,5.8,6.711,8.482   c5.896,6.421,11.213,13.426,10.593,22.088c-0.033,0.465,0.008,1.322-0.319,1.736c0,0,29.919-14.245,15.744-44.29   C60.95,41.201,47.3,19.572,51.553,4.87c-2.179,1.428-3.599,3.265-4.487,4.34c-3.241,3.922-5.891,8.294-7.715,12.912   c-2.116,5.355-2.975,11.152-1.662,17.047c1.219,5.471,4.188,10.625,6.921,15.78C45.276,56.205,45.92,57.47,46.547,58.738" fill="#5ca4a9" style=""></path></g><desc>Created with Snap</desc><defs></defs></g><g><g transform="matrix(0.5,0,0,-0.5,0,0)"><path d="M2198 -444L2204 -464Q2170 -489 2130 -498Q2091 -507 2051 -507Q1914 -507 1807 -467Q1701 -426 1620 -355Q1540 -284 1483 -188Q1427 -92 1389 19Q1352 130 1332 251Q1312 372 1305 492Q1298 613 1301 728Q1305 844 1315 943Q1297 916 1271 857Q1245 798 1213 719Q1182 640 1148 546Q1114 453 1080 358Q1047 263 1015 171Q984 80 959 5Q935 -70 917 -123Q900 -175 895 -193Q891 -205 884 -223Q878 -241 868 -258Q859 -275 846 -287Q834 -299 818 -299Q800 -299 788 -285Q776 -270 768 -250Q761 -230 756 -210Q752 -190 750 -178Q744 -136 739 -72Q734 -8 730 70Q727 148 725 236Q723 325 721 414Q720 504 719 590Q719 677 718 752Q718 828 718 888Q718 948 718 984Q696 934 665 857Q635 780 599 684Q564 588 525 477Q487 367 449 250Q412 133 377 14Q343 -105 316 -217Q313 -227 308 -242Q304 -256 297 -269Q290 -282 279 -292Q269 -301 254 -301Q240 -301 229 -292Q218 -283 210 -271Q203 -258 198 -244Q194 -229 193 -217Q188 -192 184 -162Q181 -132 178 -101Q176 -69 174 -39Q172 -8 170 18Q159 155 154 289Q150 423 150 559Q150 693 154 825Q159 957 168 1092Q171 1131 177 1179Q183 1228 200 1271Q218 1314 251 1343Q285 1372 343 1372Q357 1372 367 1365Q377 1359 377 1343L377 1333Q368 1273 359 1213Q350 1154 340 1092Q316 892 299 692Q283 493 283 291Q283 212 286 135Q289 58 297 -20Q366 194 418 359Q471 524 511 648Q551 772 578 859Q606 947 625 1006Q644 1065 655 1100Q666 1136 673 1155Q680 1175 683 1184Q686 1193 689 1200Q704 1234 730 1261Q756 1288 797 1288Q825 1288 842 1274Q860 1260 870 1239Q880 1218 883 1193Q887 1168 887 1147Q885 992 878 840Q871 689 866 540Q861 391 861 244Q862 97 875 -49Q915 69 949 173Q983 278 1013 373Q1044 468 1072 556Q1101 644 1131 730Q1162 816 1195 902Q1228 988 1268 1079Q1277 1097 1288 1115Q1299 1134 1313 1149Q1327 1164 1345 1174Q1363 1184 1385 1184Q1416 1184 1434 1164Q1452 1144 1461 1116Q1471 1088 1474 1057Q1477 1027 1477 1006Q1477 914 1471 802Q1465 691 1462 571Q1460 451 1465 328Q1470 205 1492 90Q1514 -25 1557 -125Q1600 -225 1673 -300Q1746 -374 1853 -417Q1961 -460 2112 -460Q2135 -460 2156 -457Q2178 -453 2198 -444ZM2201 1339Q2201 1330 2197 1321Q2194 1312 2190 1303Q2172 1261 2151 1221Q2131 1181 2115 1139Q2088 1069 2068 988Q2049 907 2034 818Q2020 729 2011 634Q2002 539 1998 440Q2052 429 2097 407Q2142 385 2184 353Q2264 403 2332 476Q2400 550 2456 637Q2513 724 2558 819Q2603 914 2637 1006Q2672 1098 2696 1182Q2720 1266 2735 1331Q2739 1353 2754 1375Q2769 1397 2789 1415Q2810 1433 2834 1444Q2858 1456 2881 1456Q2904 1456 2914 1442Q2924 1429 2924 1407L2924 1393Q2913 1300 2883 1198Q2853 1096 2807 992Q2762 889 2700 789Q2639 689 2564 601Q2490 514 2403 442Q2316 370 2219 323Q2239 306 2258 288Q2278 270 2299 250Q2388 166 2473 79Q2559 -8 2649 -90Q2739 -172 2837 -244Q2935 -315 3049 -368Q3079 -382 3116 -396Q3153 -409 3192 -419Q3231 -429 3269 -435Q3308 -441 3341 -441Q3358 -441 3374 -440Q3390 -438 3407 -433L3411 -454Q3368 -478 3319 -488Q3270 -497 3219 -497Q3180 -497 3136 -492Q3092 -486 3047 -476Q3002 -465 2959 -451Q2917 -436 2883 -419Q2781 -368 2682 -299Q2584 -229 2493 -148Q2402 -67 2320 22Q2239 111 2172 203Q2158 222 2144 242Q2131 262 2117 282Q2057 263 1992 255Q1990 100 1996 -49Q2002 -198 2012 -334L1990 -342Q1965 -277 1946 -205Q1928 -133 1915 -57Q1902 19 1893 96Q1885 174 1880 251Q1857 253 1833 259Q1810 266 1790 277Q1771 289 1758 307Q1746 325 1746 350Q1746 374 1757 391Q1769 409 1787 421Q1806 433 1828 439Q1851 446 1873 448L1873 504Q1873 553 1874 627Q1875 701 1880 786Q1886 871 1898 959Q1911 1047 1933 1124Q1956 1201 1990 1259Q2025 1317 2076 1343Q2096 1354 2117 1363Q2139 1372 2162 1372Q2177 1372 2189 1365Q2201 1358 2201 1339ZM1764 344Q1764 326 1775 313Q1786 301 1803 293Q1821 285 1841 280Q1861 276 1879 274Q1875 352 1873 426Q1853 424 1833 420Q1814 416 1798 406Q1783 397 1773 382Q1764 367 1764 344ZM1993 279Q2048 288 2099 309Q2077 340 2052 365Q2028 391 1996 408Q1995 376 1994 343Q1993 311 1993 279Z" fill="#5ca4a9" style=""></path></g></g></g></svg>